<?xml version="1.0" standalone="no"?>
<!DOCTYPE svg PUBLIC "-//W3C//DTD SVG 20010904//EN"
 "http://www.w3.org/TR/2001/REC-SVG-20010904/DTD/svg10.dtd">
<svg version="1.0" xmlns="http://www.w3.org/2000/svg"
 width="466.000000pt" height="535.000000pt" viewBox="0 0 466.000000 535.000000"
 preserveAspectRatio="xMidYMid meet">

<g transform="translate(0.000000,535.000000) scale(0.100000,-0.100000)"
fill="#000000" stroke="none">
<path d="M2245 5271 c-44 -26 -208 -123 -365 -213 -157 -91 -447 -260 -645
-375 -198 -115 -518 -301 -712 -413 -194 -113 -349 -208 -345 -212 4 -3 88
-52 187 -108 99 -56 217 -125 262 -152 l83 -49 107 64 c245 146 424 247 437
247 8 0 137 -71 287 -158 298 -173 1054 -609 1240 -717 l117 -67 153 90 c121
71 1223 711 1429 830 34 19 41 27 30 34 -8 5 -298 172 -645 372 -1330 766
-1490 858 -1499 867 -18 16 -40 9 -121 -40z m195 -629 c47 -27 204 -117 350
-202 146 -84 342 -197 435 -251 182 -105 213 -124 205 -132 -3 -2 -124 -73
-270 -158 l-264 -153 -71 39 c-38 21 -160 90 -270 155 -110 64 -325 188 -477
276 -153 87 -278 161 -278 164 0 3 44 30 98 60 53 30 171 98 262 152 91 54
172 98 180 98 8 0 53 -22 100 -48z"/>
<path d="M1162 3951 l-44 -28 47 -28 c39 -23 45 -29 34 -40 -19 -18 -224 -135
-237 -135 -5 0 -31 12 -57 27 l-48 26 -43 -24 c-24 -13 -44 -26 -44 -29 0 -3
71 -46 158 -96 l157 -92 40 23 c21 12 40 27 42 31 2 5 -15 19 -37 32 -22 12
-40 26 -40 30 0 5 55 40 122 79 l122 70 50 -30 51 -29 42 22 c24 13 43 26 43
30 0 7 -287 180 -309 187 -3 1 -26 -11 -49 -26z"/>
<path d="M4434 3659 c-481 -278 -665 -385 -774 -449 -103 -61 -536 -313 -1006
-586 l-171 -99 -7 -179 c-10 -276 -8 -486 5 -486 6 0 65 32 131 71 94 55 122
68 129 58 5 -8 7 -68 5 -134 -2 -66 -4 -323 -5 -572 l-1 -452 -135 -78 -135
-78 0 -332 c0 -183 2 -333 3 -333 2 0 204 116 448 258 408 238 761 442 1455
845 l261 152 6 215 c8 354 8 1372 0 1367 -4 -2 -72 -41 -150 -86 l-143 -83 -2
-456 -3 -456 -130 -78 c-71 -42 -134 -77 -138 -78 -5 0 -7 203 -5 450 2 248 0
450 -5 450 -4 0 -70 -36 -146 -80 -76 -44 -141 -80 -145 -80 -3 0 -6 57 -6
128 l0 127 163 94 c89 51 287 166 439 255 l278 161 0 333 c0 182 -1 332 -3
332 -2 0 -97 -54 -213 -121z m-838 -1278 c133 -81 117 -386 -31 -598 -25 -35
-45 -66 -45 -68 0 -2 43 -69 95 -150 52 -81 95 -153 95 -159 0 -10 -274 -176
-291 -176 -3 0 -44 61 -90 135 -46 74 -88 135 -92 135 -5 0 -27 -10 -48 -22
l-39 -22 0 -192 0 -193 -92 -54 c-51 -30 -114 -66 -141 -81 l-47 -28 2 588 3
588 155 89 c85 49 196 113 245 141 50 29 108 60 130 69 57 23 152 22 191 -2z"/>
<path d="M3254 2044 c-27 -14 -61 -35 -76 -46 l-28 -19 0 -135 0 -135 23 12
c71 37 158 104 183 141 22 34 29 57 32 111 3 44 0 72 -8 82 -19 23 -71 18
-126 -11z"/>
<path d="M1547 3656 c-27 -56 -53 -96 -64 -100 -10 -3 -87 -17 -171 -30 -84
-13 -155 -25 -157 -28 -2 -2 22 -18 53 -35 l58 -32 94 19 c139 30 136 31 94
-44 l-35 -64 61 -37 c34 -21 65 -33 70 -29 4 5 24 47 45 94 20 47 43 90 51 96
8 6 78 21 156 34 193 31 189 29 119 68 l-59 32 -103 -24 c-57 -14 -105 -24
-106 -22 -1 1 13 28 32 59 19 32 35 61 35 65 0 6 -112 72 -123 72 -2 0 -25
-42 -50 -94z"/>
<path d="M1838 3357 c-114 -67 -209 -125 -212 -128 -3 -3 64 -45 149 -93 l154
-88 46 28 47 27 -54 30 c-83 46 -128 77 -128 86 0 4 16 16 35 27 40 21 30 24
152 -47 l43 -24 45 24 c25 13 45 27 45 30 0 3 -32 23 -70 44 -39 21 -70 42
-70 46 0 11 45 41 61 41 6 0 52 -23 101 -51 l89 -52 35 19 c20 10 39 24 44 29
9 11 -266 176 -291 174 -8 0 -107 -55 -221 -122z"/>
<path d="M2469 3226 c-47 -24 -394 -228 -407 -238 -9 -8 26 -33 133 -94 80
-46 152 -84 160 -84 21 0 86 41 80 50 -3 5 -43 30 -90 56 -46 26 -82 50 -80
54 5 7 34 25 238 145 108 63 106 55 26 103 -30 18 -38 19 -60 8z"/>
<path d="M1117 3137 c-3 -12 -6 -290 -7 -617 0 -327 -3 -596 -5 -598 -2 -2
-23 7 -47 21 -61 35 -448 258 -755 436 -144 83 -267 151 -273 151 -7 0 -10
-197 -10 -617 l0 -618 143 -81 c78 -45 212 -122 297 -171 85 -50 466 -269 845
-488 380 -218 732 -422 783 -453 51 -30 94 -53 96 -51 2 2 7 562 11 1244 l7
1240 -354 204 c-194 112 -434 251 -533 309 -99 57 -183 106 -186 108 -4 2 -9
-6 -12 -19z"/>
</g>
</svg>
